{"accessors" : [{"bufferView" : 0, "byteOffset" : 0, "componentType" : 5123, "count" : 72936, "type" : "SCALAR", "max" : [12679], "min" : [0]}, {"bufferView" : 1, "byteOffset" : 0, "componentType" : 5126, "count" : 12680, "type" : "VEC3", "max" : [1.2940360307693481, 1.289397954940796, 1.2572150230407715], "min" : [-1.3024729490280151, -1.3096460103988647, -1.2572150230407715], "name" : "POSITION"}, {"bufferView" : 1, "byteOffset" : 12, "componentType" : 5126, "count" : 12680, "type" : "VEC3", "max" : [0.999879002571106, 0.9999712109565735, 0.9999631643295288], "min" : [-0.999879002571106, -0.9999712109565735, -0.9999631643295288], "name" : "NORMAL"}], "asset" : {"generator" : "Aspose.3D 24.6.0", "version" : "2.0"}, "buffers" : [{"uri" : "buffer.bin", "byteLength" : 450200}], "bufferViews" : [{"buffer" : 0, "byteOffset" : 0, "byteLength" : 145872, "target" : 34963}, {"buffer" : 0, "byteOffset" : 145876, "byteLength" : 304320, "byteStride" : 24, "target" : 34962}], "meshes" : [{"primitives" : [{"attributes" : {"POSITION" : 1, "NORMAL" : 2}, "indices" : 0, "mode" : 4}], "name" : ""}], "nodes" : [{"mesh" : 0, "name" : "Retopo_Sphere.003_mesh.010"}], "scene" : 0, "scenes" : [{"nodes" : [0]}]}